<svg viewBox="0 0 400 301" fill="none" xmlns="http://www.w3.org/2000/svg"><path fill-rule="evenodd" clip-rule="evenodd" d="M129.01 161.246C132.603 157.387 138.643 157.171 142.503 160.763L142.514 160.774L153.523 171.057C157.384 174.662 157.595 180.715 153.996 184.582C150.402 188.441 144.36 188.656 140.503 185.064C140.499 185.06 140.495 185.058 140.492 185.054L129.483 174.771C125.622 171.165 125.409 165.112 129.01 161.246Z" fill="#F49000"/><path fill-rule="evenodd" clip-rule="evenodd" d="M270.76 161.246C267.167 157.387 261.127 157.171 257.266 160.763L257.255 160.774L246.247 171.057C242.385 174.662 242.174 180.715 245.775 184.582C249.368 188.441 255.409 188.656 259.267 185.064C259.271 185.06 259.274 185.058 259.279 185.054L270.286 174.771C274.149 171.165 274.36 165.112 270.76 161.246Z" fill="#F49000"/><mask id="mask0" mask-type="alpha" maskUnits="userSpaceOnUse" x="78" y="0" width="244" height="177"><path fill-rule="evenodd" clip-rule="evenodd" d="M78 0.561523H321.19V176.26H78V0.561523Z" fill="white"/></mask><g mask="url(#mask0)"><path fill-rule="evenodd" clip-rule="evenodd" d="M310.326 47.7757L273.711 56.9024V25.586C273.711 22.2332 273.033 18.9147 271.719 15.8304C266.331 3.18663 251.712 -2.69516 239.07 2.6926C220.217 10.7246 207.252 14.7418 200.175 14.7418C193.048 14.7418 179.873 10.6707 160.648 2.53079C157.578 1.23012 154.279 0.560791 150.945 0.560791C137.2 0.560791 126.059 11.7028 126.059 25.4462V57.0471L88.8661 47.7757C83.0995 46.3377 77.6088 50.9434 78.0219 56.8705C79.9735 84.8844 99.7054 108.937 127.405 116.455C133.958 150.521 163.909 176.261 199.885 176.261C235.919 176.261 265.907 150.436 272.394 116.29C299.774 108.588 319.232 84.6797 321.169 56.8705C321.582 50.9434 316.091 46.3377 310.326 47.7757Z" fill="#50C800"/></g><path fill-rule="evenodd" clip-rule="evenodd" d="M248.657 28.7135C248.315 26.3218 247.535 23.9791 246.288 21.8167C245.419 20.3088 243.331 20.0906 242.164 21.3864L237.942 26.0815C237.912 26.0803 237.881 26.0803 237.852 26.0791C237.922 22.6098 237.081 19.1271 235.288 16.017C234.418 14.508 232.33 14.291 231.163 15.588L210.857 38.1602C204.354 42.6444 195.269 42.615 188.758 38.0241L168.15 15.6064C166.985 14.3106 165.37 14.5288 164.5 16.0354C162.606 19.3208 161.776 23.0205 161.957 26.6798C161.905 26.6834 161.852 26.6896 161.798 26.692L157.026 21.3864C155.86 20.0906 153.772 20.3088 152.902 21.8167C151.442 24.3481 150.623 27.1284 150.402 29.9467C141.768 34.6174 135.902 43.7539 135.902 54.2597V72.0791C135.902 87.3365 148.272 99.7056 163.53 99.7056H165.599C177.031 99.7056 186.84 92.7622 191.041 82.862C199.701 82.8228 205.92 82.8081 209.689 82.8191C214.016 92.4349 223.674 99.1258 234.891 99.1258H236.82C252.077 99.1258 264.446 86.7579 264.446 71.4993V53.6798C264.446 42.6579 257.991 33.1475 248.657 28.7135Z" fill="#8EE000"/><path fill-rule="evenodd" clip-rule="evenodd" d="M185.698 76.6786C186.913 70.0515 192.995 64.9089 200.588 64.9089C207.354 64.9089 213.434 70.0515 214.65 76.6786V77.5196L200.175 79.9885L185.698 77.5196V76.6786Z" fill="#FFC200"/><path fill-rule="evenodd" clip-rule="evenodd" d="M200.174 79.9875L189.753 78.21C189.753 78.2173 189.752 78.2247 189.752 78.2308V95.6629C189.752 101.42 194.419 106.085 200.174 106.085C205.93 106.085 210.597 101.42 210.597 95.6629V78.2308C210.597 78.2247 210.596 78.2173 210.596 78.21L200.174 79.9875Z" fill="#F49000"/><path fill-rule="evenodd" clip-rule="evenodd" d="M200.174 79.9877L192.189 78.627C192.115 79.0658 192.069 79.5145 192.069 79.9754V91.6005C192.069 96.0774 195.697 99.706 200.174 99.706C204.651 99.706 208.28 96.0774 208.28 91.6005V79.9754C208.28 79.5145 208.233 79.0658 208.16 78.627L200.174 79.9877Z" fill="#B66E28"/><path fill-rule="evenodd" clip-rule="evenodd" d="M255.761 66.7061V57.3367C255.761 46.1457 246.688 37.0718 235.496 37.0718C224.302 37.0718 215.229 46.1457 215.229 57.3367V69.582C215.229 73.0659 216.109 76.3439 217.659 79.2075C231.532 73.2461 244.326 69.0561 255.761 66.7061Z" fill="#FEFEFE"/><path fill-rule="evenodd" clip-rule="evenodd" d="M203.069 71.6238C202.834 71.6238 202.594 71.5833 202.359 71.4975C200.695 70.8895 199.075 70.8895 197.411 71.4975C196.333 71.891 195.144 71.3357 194.752 70.2594C194.361 69.1832 194.915 67.9929 195.991 67.6006C198.574 66.6592 201.195 66.6592 203.779 67.6006C204.855 67.9929 205.409 69.1832 205.018 70.2594C204.712 71.1004 203.916 71.6238 203.069 71.6238Z" fill="#FFDE00"/><path fill-rule="evenodd" clip-rule="evenodd" d="M163.696 37.0718C152.502 37.0718 143.43 46.1446 143.43 57.337V66.5876C154.879 68.8861 167.707 73.0542 181.629 79.0059C183.113 76.1888 183.961 72.9867 183.961 69.5824V57.337C183.961 46.1446 174.888 37.0718 163.696 37.0718Z" fill="#FEFEFE"/><path fill-rule="evenodd" clip-rule="evenodd" d="M225.951 75.8105C231.401 73.6837 236.661 71.8485 241.716 70.3125C241.807 69.7854 241.863 69.2472 241.863 68.6943V58.2241C241.863 52.948 237.586 48.6709 232.31 48.6709C230.535 48.6709 228.879 49.1637 227.454 50.0071C228.483 51.0981 229.125 52.5606 229.125 54.18C229.125 57.5438 226.404 60.2689 223.046 60.2689C222.947 60.2689 222.855 60.2456 222.757 60.2407V68.6943C222.757 71.5261 223.995 74.0612 225.951 75.8105Z" fill="#4C4C4C"/><path fill-rule="evenodd" clip-rule="evenodd" d="M209.221 139.723L190.641 139.73C189.644 139.73 188.938 140.651 189.245 141.548C190.721 145.862 195.018 148.839 199.928 148.837C204.836 148.835 209.137 145.855 210.615 141.541C210.923 140.643 210.217 139.723 209.221 139.723ZM225.435 124.064L206.853 124.071C205.858 124.071 205.151 124.991 205.459 125.89C206.934 130.202 211.232 133.179 216.14 133.178C221.049 133.175 225.348 130.196 226.827 125.882C227.135 124.985 226.43 124.064 225.435 124.064ZM194.403 125.882C194.71 124.985 194.004 124.064 193.008 124.064L174.428 124.071C173.433 124.071 172.725 124.991 173.032 125.89C174.509 130.202 178.805 133.179 183.714 133.178C188.623 133.175 192.923 130.196 194.403 125.882Z" fill="#8EE000"/><path fill-rule="evenodd" clip-rule="evenodd" d="M166.88 48.6709C165.402 48.6709 164.008 49.0154 162.76 49.6161C164.033 50.7316 164.854 52.3523 164.854 54.1801C164.854 57.5427 162.131 60.2691 158.775 60.2691C158.274 60.2691 157.793 60.1906 157.326 60.0766V68.6947C157.326 69.1813 157.375 69.657 157.445 70.1253C162.563 71.6613 167.891 73.5063 173.413 75.6528C175.269 73.9096 176.434 71.4407 176.434 68.6947V58.2243C176.434 52.9468 172.157 48.6709 166.88 48.6709Z" fill="#4C4C4C"/><path fill-rule="evenodd" clip-rule="evenodd" d="M374.026 264.393C367.235 264.393 362.771 259.211 362.771 252.272C362.771 245.332 367.235 240.15 374.026 240.15C380.91 240.15 385.281 245.332 385.281 252.272C385.281 259.211 380.91 264.393 374.026 264.393ZM374.026 278.246C388.894 278.246 400 266.628 400 252.272C400 237.537 388.894 226.297 374.026 226.297C359.249 226.297 348.052 237.915 348.052 252.272C348.052 267.006 359.249 278.246 374.026 278.246ZM315.971 288.635C309.54 288.635 304.762 284.474 304.762 279.112C304.762 273.194 309.264 269.587 315.971 269.587C322.77 269.587 327.273 273.194 327.273 279.112C327.273 284.567 322.586 288.635 315.971 288.635ZM315.97 240.151C321.341 240.151 324.675 243.037 324.675 248.809C324.675 253.427 320.971 257.467 315.97 257.467C310.971 257.467 307.359 253.427 307.359 248.809C307.359 243.421 310.786 240.151 315.97 240.151ZM332.242 261.704C336.573 258.434 339.244 253.482 339.244 247.783C339.244 245.447 338.784 243.298 337.862 241.242C342.745 238.814 344.589 234.329 344.589 230.125C344.589 225.92 342.93 224.706 340.534 225.827C331.874 229.844 330.675 230.031 324.964 229.003C321.37 228.349 318.79 227.882 315.289 227.882C308.839 227.882 303.587 229.938 299.165 233.675C295.019 237.225 292.899 242.364 292.899 247.783C292.899 253.482 295.48 258.434 299.903 261.704C294.097 264.786 290.043 271.326 290.043 279.081C290.043 291.881 300.179 300.757 316.026 300.757C332.61 300.757 342.101 290.946 342.101 278.147C342.101 270.392 338.046 264.6 332.242 261.704ZM260.959 227.164C254.917 227.164 249.148 229.678 245.12 234.054C242.738 230.143 239.535 228.094 236.788 228.094C234.773 228.094 233.766 229.212 233.766 231.726V271.579C233.766 275.211 235.231 276.514 238.619 276.514H243.563C247.134 276.514 248.416 275.024 248.416 271.579V253.143C248.416 245.786 252.627 241.317 258.854 241.317C265.172 241.317 268.467 245.6 268.467 253.329V271.579C268.467 275.211 269.932 276.514 273.321 276.514H278.264C281.652 276.514 283.117 275.211 283.117 271.579V252.584C283.117 237.034 275.334 227.164 260.959 227.164ZM211.802 276.514H216.769C220.357 276.514 221.645 275.02 221.645 271.566V233.844C221.645 230.389 220.357 228.895 216.769 228.895H211.802C208.214 228.895 206.926 230.389 206.926 233.844V271.566C206.926 275.02 208.214 276.514 211.802 276.514ZM214.286 221.969C218.764 221.969 222.511 218.334 222.511 213.744C222.511 209.153 218.764 205.519 214.286 205.519C209.716 205.519 206.061 209.153 206.061 213.744C206.061 218.334 209.716 221.969 214.286 221.969ZM185.828 276.514H190.795C194.199 276.514 195.671 275.198 195.671 271.53V209.186C195.671 206.647 194.659 205.519 192.635 205.519C187.668 205.519 180.952 212.383 180.952 224.325V271.53C180.952 275.198 182.424 276.514 185.828 276.514ZM147.186 264.393C140.395 264.393 135.931 259.211 135.931 252.272C135.931 245.332 140.395 240.15 147.186 240.15C154.069 240.15 158.442 245.332 158.442 252.272C158.442 259.211 154.069 264.393 147.186 264.393ZM146.32 278.246C161.189 278.246 172.294 266.628 172.294 252.272C172.294 237.537 161.189 226.297 146.32 226.297C131.543 226.297 120.346 237.915 120.346 252.272C120.346 267.006 131.543 278.246 146.32 278.246ZM107.619 228.895H102.591C98.9599 228.895 97.6562 230.385 97.6562 233.83V252.267C97.6562 259.716 93.8382 264.092 87.6924 264.092C81.3609 264.092 78.1018 259.902 78.1018 252.081V233.83C78.1018 230.199 76.6116 228.895 73.1673 228.895H68.139C64.6937 228.895 63.2035 230.199 63.2035 233.83V252.454C63.2035 268.376 71.2119 278.246 85.2718 278.246C91.5109 278.246 97.0968 275.825 101.008 271.542C103.336 275.267 106.595 277.315 109.481 277.315C111.25 277.315 112.554 276.198 112.554 273.684V233.83C112.554 230.199 111.064 228.895 107.619 228.895ZM26.4064 264.393C19.2643 264.393 14.7186 259.211 14.7186 252.272C14.7186 245.332 19.2643 240.15 26.4064 240.15C33.5496 240.15 38.0952 245.332 38.0952 252.272C38.0952 259.211 33.5496 264.393 26.4064 264.393ZM50.054 205.519C44.809 205.519 38.0924 212.369 38.0924 224.287V230.105C34.5957 227.853 30.5472 226.633 25.4871 226.633C11.1326 226.633 0 238.176 0 252.44C0 266.703 10.673 278.246 25.3944 278.246C32.4795 278.246 38.0924 275.618 41.7725 272.052C44.1649 275.431 47.2014 277.308 49.7778 277.308C51.8023 277.308 52.8138 276.181 52.8138 273.648V208.897C52.8138 206.645 51.8023 205.519 50.054 205.519Z" fill="#50C800"/></svg>